<svg width="48" height="49" viewBox="0 0 48 49" fill="none" xmlns="http://www.w3.org/2000/svg">
<g clip-path="url(#clip0)">
<path d="M47.8262 5.99354C46.7641 3.00572 43.9309 0.998535 40.7753 0.998535C38.335 0.998535 36.1844 2.18822 34.8137 3.99854H13.1856C11.8159 2.18822 9.66436 0.998535 7.22404 0.998535C4.06842 0.998535 1.23529 3.00572 0.173102 5.99354C0.0274251 6.40271 -0.0275685 6.83866 0.0119295 7.2712C0.0514274 7.70373 0.184473 8.12251 0.401852 8.49854C0.184889 8.87471 0.052084 9.29347 0.0125926 9.72593C-0.0268988 10.1584 0.0278626 10.5943 0.173102 11.0035C1.23529 13.9913 4.06842 15.9985 7.22404 15.9985C9.66342 15.9985 11.8131 14.8098 13.1837 13.0013H34.8156C36.1862 14.8098 38.3359 15.9985 40.7753 15.9985C43.9309 15.9985 46.765 13.9913 47.8262 11.0035C47.9715 10.5943 48.0262 10.1584 47.9867 9.72594C47.9472 9.29348 47.8144 8.87472 47.5975 8.49854C48.0353 7.74103 48.1225 6.82604 47.8262 5.99354ZM40.7753 9.99854H44.9997C44.38 11.7423 42.7319 12.9985 40.7753 12.9985C38.8187 12.9985 37.1706 11.7423 36.5509 9.99854H11.4494C10.8297 11.7423 9.18154 12.9985 7.22498 12.9985C5.26842 12.9985 3.61935 11.7423 2.99967 9.99854H7.22404L8.72404 8.49854L7.22404 6.99854H2.99967C3.61935 5.25479 5.26748 3.99854 7.22404 3.99854C9.18154 3.99854 10.8306 5.25572 11.4494 7.00135H36.5491C37.1687 5.25572 38.8178 3.99854 40.7753 3.99854C42.7319 3.99854 44.38 5.25479 44.9997 6.99854H40.7753L39.2753 8.49854L40.7753 9.99854ZM40.2541 25.5367L38.8337 21.1773C37.8278 18.0901 34.9497 16.0004 31.7022 16.0004H16.2962C13.0487 16.0004 10.1706 18.0901 9.16467 21.1773L7.74436 25.5367C4.96935 26.6363 2.99967 29.3317 2.99967 32.4985V44.4985C2.99967 46.9801 5.0181 48.9985 7.49967 48.9985H8.99967C11.4812 48.9985 13.4997 46.9801 13.4997 44.4985V42.9985H34.4997V44.4985C34.4997 46.9801 36.5181 48.9985 38.9997 48.9985H40.4997C42.9812 48.9985 44.9997 46.9801 44.9997 44.4985V32.4985C44.9997 29.3317 43.03 26.6363 40.2541 25.5367ZM12.0175 22.1063C12.3103 21.2025 12.8823 20.4148 13.6511 19.8567C14.42 19.2986 15.3461 18.9988 16.2962 19.0004H31.7031C33.6569 19.0004 35.3762 20.2492 35.9819 22.1063L36.9241 24.9985H11.0753L12.0175 22.1063ZM10.4997 44.4985C10.4997 45.3263 9.82561 45.9985 8.99967 45.9985H7.49967C6.67373 45.9985 5.99967 45.3263 5.99967 44.4985V42.9985H10.4997V44.4985ZM41.9997 44.4985C41.9997 45.3263 41.3256 45.9985 40.4997 45.9985H38.9997C38.1737 45.9985 37.4997 45.3263 37.4997 44.4985V42.9985H41.9997V44.4985ZM41.9997 36.9985V39.9985H5.99967V32.4985C5.99967 30.017 8.01811 27.9985 10.4997 27.9985H37.4997C39.9812 27.9985 41.9997 30.017 41.9997 32.4985V36.9985ZM35.1747 30.2495C32.9153 30.2495 29.9997 32.4282 29.9997 34.7429C29.9997 35.866 30.5481 37.7495 34.2241 37.7495L35.1747 37.7401C37.6084 37.7401 39.3747 36.1651 39.3747 33.9948C39.3747 31.8245 37.6084 30.2495 35.1747 30.2495ZM35.1747 35.4901C34.8822 35.4901 34.5531 35.4995 34.2241 35.4995C33.2369 35.4995 32.2497 35.4151 32.2497 34.7429C32.2497 33.8457 34.0047 32.4995 35.1747 32.4995C36.3447 32.4995 37.1247 33.0976 37.1247 33.9948C37.1247 34.892 36.3447 35.4901 35.1747 35.4901ZM12.8247 30.2495C10.3909 30.2495 8.62467 31.8245 8.62467 33.9948C8.62467 36.1651 10.3909 37.7401 12.8247 37.7401L13.7753 37.7495C17.4512 37.7495 17.9997 35.8651 17.9997 34.7429C17.9997 32.4282 15.084 30.2495 12.8247 30.2495ZM13.7753 35.4995C13.4462 35.4995 13.1172 35.4901 12.8247 35.4901C11.6547 35.4901 10.8747 34.892 10.8747 33.9948C10.8747 33.0976 11.6547 32.4995 12.8247 32.4995C13.9947 32.4995 15.7497 33.8457 15.7497 34.7429C15.7497 35.4151 14.7625 35.4995 13.7753 35.4995Z" fill="#F2E90A"/>
</g>
<defs>
<clipPath id="clip0">
<rect width="48" height="48" fill="white" transform="translate(0.00012207 0.998535)"/>
</clipPath>
</defs>
</svg>
