<svg width="62" height="50" viewBox="0 0 62 50" fill="none" xmlns="http://www.w3.org/2000/svg">
<g clip-path="url(#clip0)">
<path d="M61.2251 37.5H58.9001V26.9434C58.9001 25.3027 58.2414 23.6914 57.0789 22.5293L48.9511 14.3359C47.8079 13.1641 46.2095 12.5 44.5723 12.5H40.3001V7.67578C40.3001 5.16602 38.1495 3.125 35.5145 3.125H4.78575C2.15075 3.125 0.00012207 5.16602 0.00012207 7.67578V36.0742C0.00012207 38.584 2.15075 40.625 4.78575 40.625H6.35512C6.24856 41.1328 6.20012 41.6504 6.20012 42.1875C6.20012 46.5039 9.66825 50 13.9501 50C18.232 50 21.7001 46.5039 21.7001 42.1875C21.7001 41.6504 21.642 41.1328 21.5451 40.625H40.4551C40.3486 41.1328 40.3001 41.6504 40.3001 42.1875C40.3001 46.5039 43.7682 50 48.0501 50C52.332 50 55.8001 46.5039 55.8001 42.1875C55.8001 41.6504 55.742 41.1328 55.6451 40.625H61.2251C61.6514 40.625 62.0001 40.2734 62.0001 39.8438V38.2812C62.0001 37.8516 61.6514 37.5 61.2251 37.5ZM44.5723 15.625C45.3861 15.625 46.1901 15.957 46.7617 16.543L54.8895 24.7363C54.967 24.8145 54.9961 24.9219 55.0639 25.0098H40.3001V15.6348H44.5723V15.625ZM13.9501 46.875C11.3829 46.875 9.30012 44.7754 9.30012 42.1875C9.30012 39.5996 11.3829 37.5 13.9501 37.5C16.5173 37.5 18.6001 39.5996 18.6001 42.1875C18.6001 44.7754 16.5173 46.875 13.9501 46.875ZM20.1114 37.5C18.697 35.6152 16.4689 34.375 13.9501 34.375C11.4314 34.375 9.20325 35.6152 7.78887 37.5H4.78575C3.85575 37.5 3.10012 36.8652 3.10012 36.0742V7.67578C3.10012 6.88477 3.85575 6.25 4.78575 6.25H35.5145C36.4445 6.25 37.2001 6.88477 37.2001 7.67578V37.5H20.1114ZM48.0501 46.875C45.4829 46.875 43.4001 44.7754 43.4001 42.1875C43.4001 39.5996 45.4829 37.5 48.0501 37.5C50.6173 37.5 52.7001 39.5996 52.7001 42.1875C52.7001 44.7754 50.6173 46.875 48.0501 46.875ZM48.0501 34.375C45.5217 34.375 43.3032 35.6152 41.8889 37.5H40.3001V28.125H55.8001V37.5H54.2114C52.797 35.6152 50.5786 34.375 48.0501 34.375Z" fill="#F2E90A"/>
</g>
<defs>
<clipPath id="clip0">
<rect width="62" height="50" fill="white" transform="translate(0.00012207)"/>
</clipPath>
</defs>
</svg>
